<svg width="20" height="20" viewBox="0 0 20 20" fill="none" xmlns="http://www.w3.org/2000/svg">
<path d="M10.0001 1.66602C14.6026 1.66602 18.3334 5.39685 18.3334 9.99935C18.3334 14.6018 14.6026 18.3327 10.0001 18.3327C5.39758 18.3327 1.66675 14.6018 1.66675 9.99935C1.66675 5.39685 5.39758 1.66602 10.0001 1.66602ZM10.0001 3.33268C8.23197 3.33268 6.53628 4.03506 5.28604 5.2853C4.03579 6.53555 3.33341 8.23124 3.33341 9.99935C3.33341 11.7675 4.03579 13.4632 5.28604 14.7134C6.53628 15.9636 8.23197 16.666 10.0001 16.666C11.7682 16.666 13.4639 15.9636 14.7141 14.7134C15.9644 13.4632 16.6667 11.7675 16.6667 9.99935C16.6667 8.23124 15.9644 6.53555 14.7141 5.2853C13.4639 4.03506 11.7682 3.33268 10.0001 3.33268ZM10.4167 10.8327C10.6291 10.8329 10.8334 10.9142 10.9879 11.0601C11.1423 11.2059 11.2353 11.4051 11.2477 11.6172C11.2602 11.8292 11.1912 12.038 11.0549 12.2009C10.9185 12.3638 10.7252 12.4684 10.5142 12.4935L10.4167 12.4993H7.58841L6.89425 13.7402C6.79129 13.9274 6.62036 14.0679 6.41676 14.1327C6.21317 14.1975 5.99247 14.1816 5.80025 14.0883C5.60803 13.9951 5.45898 13.8315 5.38389 13.6315C5.30879 13.4315 5.3134 13.2102 5.39675 13.0135L5.44008 12.9252L5.67841 12.5002H5.25008C5.03639 12.5019 4.83021 12.4214 4.67416 12.2754C4.51811 12.1294 4.42411 11.929 4.41159 11.7157C4.39907 11.5024 4.46899 11.2924 4.6069 11.1291C4.7448 10.9659 4.94015 10.8618 5.15258 10.8385L5.25008 10.8327H10.4167ZM11.9942 8.34268L13.3884 10.8327H14.7501C14.9711 10.8327 15.1831 10.9205 15.3393 11.0768C15.4956 11.233 15.5834 11.445 15.5834 11.666C15.5834 11.887 15.4956 12.099 15.3393 12.2553C15.1831 12.4116 14.9711 12.4993 14.7501 12.4993H14.3217L14.5609 12.926C14.6661 13.1187 14.6911 13.345 14.6303 13.5559C14.5696 13.7669 14.4282 13.9453 14.2366 14.0525C14.0451 14.1598 13.819 14.1871 13.6075 14.1286C13.3959 14.0701 13.216 13.9306 13.1067 13.7402L10.5401 9.15685C10.4349 8.96421 10.4099 8.73785 10.4706 8.52692C10.5314 8.316 10.6728 8.13755 10.8644 8.03032C11.0559 7.92309 11.282 7.89575 11.4935 7.95424C11.7051 8.01272 11.885 8.15231 11.9942 8.34268ZM9.89425 4.59268L10.0001 4.78185L10.1059 4.59268C10.2139 4.39974 10.3941 4.25758 10.6068 4.19749C10.8196 4.1374 11.0476 4.1643 11.2405 4.27227C11.4334 4.38023 11.5756 4.56042 11.6357 4.7732C11.6958 4.98597 11.6689 5.2139 11.5609 5.40685L8.99425 9.99018C8.88501 10.1806 8.70507 10.3201 8.49351 10.3786C8.28196 10.4371 8.05587 10.4098 7.86436 10.3025C7.67284 10.1953 7.53136 10.0169 7.47065 9.80594C7.40993 9.59501 7.43488 9.36865 7.54008 9.17602L9.04508 6.48768L8.44008 5.40685C8.38525 5.31129 8.3499 5.2058 8.3361 5.0965C8.3223 4.98719 8.3303 4.87623 8.35966 4.77004C8.38902 4.66385 8.43914 4.56453 8.50713 4.47783C8.57512 4.39114 8.65963 4.31879 8.75576 4.26496C8.85189 4.21114 8.95775 4.17691 9.06719 4.16426C9.17664 4.15162 9.28751 4.1608 9.39338 4.19127C9.49926 4.22175 9.59804 4.27292 9.68401 4.34182C9.76999 4.41072 9.84144 4.49599 9.89425 4.59268Z" fill="black"/>
</svg>
