<svg width="24" height="24" viewBox="0 0 24 24" fill="none" xmlns="http://www.w3.org/2000/svg">
<path d="M16.154 7.34575L15.434 6.63875L17.034 5.03875H7.566V4.03875H17.034L15.434 2.43875L16.142 1.71875L18.962 4.53875L16.154 7.34575ZM5 18.9998H19V14.1538H5V18.9998ZM7.419 17.6917C7.73967 17.6917 8.00633 17.5871 8.219 17.3778C8.43167 17.1684 8.53833 16.9031 8.539 16.5818C8.53967 16.2604 8.43467 15.9934 8.224 15.7808C8.01333 15.5681 7.748 15.4614 7.428 15.4608C7.108 15.4601 6.841 15.5651 6.627 15.7758C6.413 15.9864 6.30633 16.2521 6.307 16.5728C6.307 16.8928 6.412 17.1594 6.622 17.3727C6.832 17.5861 7.09733 17.6928 7.418 17.6928M16.573 17.6928C16.893 17.6928 17.1597 17.5874 17.373 17.3768C17.5863 17.1661 17.693 16.9011 17.693 16.5818C17.693 16.2604 17.5877 15.9934 17.377 15.7808C17.1663 15.5681 16.9013 15.4614 16.582 15.4608C16.2627 15.4601 15.9957 15.5651 15.781 15.7758C15.5663 15.9864 15.4597 16.2521 15.461 16.5728C15.461 16.8928 15.566 17.1594 15.776 17.3727C15.986 17.5861 16.2517 17.6928 16.573 17.6928ZM4 13.1518H18.585L17.112 8.99975H5.946L7.546 10.5998L6.838 11.3197L4.02 8.49975L6.84 5.67975L7.547 6.39975L5.947 7.99975H17.84L20 14.1538V21.9998H18.77V19.9998H5.23V21.9998H4V13.1518Z" fill="#114232"/>
</svg>
