<svg width="20" height="20" viewBox="0 0 20 20" fill="none" xmlns="http://www.w3.org/2000/svg">
<path d="M1.875 2.32394V17.6755C1.8751 17.7088 1.88504 17.7413 1.90356 17.769C1.92208 17.7967 1.94836 17.8183 1.9791 17.8311C2.00985 17.8439 2.04369 17.8474 2.07638 17.841C2.10908 17.8347 2.13917 17.8188 2.16289 17.7954L10.1562 10.0001L2.16289 2.20402C2.13917 2.18064 2.10908 2.16478 2.07638 2.15843C2.04369 2.15208 2.00985 2.15552 1.9791 2.16833C1.94836 2.18114 1.92208 2.20274 1.90356 2.23042C1.88504 2.2581 1.8751 2.29064 1.875 2.32394ZM13.5078 6.79699L3.48516 1.27512L3.47891 1.2716C3.30625 1.17785 3.14219 1.41144 3.28359 1.54738L11.1402 9.05988L13.5078 6.79699ZM3.28438 18.4529C3.14219 18.5888 3.30625 18.8224 3.47969 18.7286L3.48594 18.7251L13.5078 13.2032L11.1402 10.9396L3.28438 18.4529ZM17.5539 9.02355L14.7551 7.48215L12.1234 10.0001L14.7551 12.5169L17.5539 10.9767C18.3152 10.556 18.3152 9.44426 17.5539 9.02355Z" fill="black"/>
</svg>
