<svg width="24" height="24" viewBox="0 0 24 24" fill="none" xmlns="http://www.w3.org/2000/svg">
<path d="M12.7499 2.75V4.5H14.7249C15.0759 4.5 15.4189 4.606 15.7089 4.803L17.4059 5.957C17.4479 5.985 17.4946 5.99933 17.5459 6H21.6479C21.8468 6 22.0376 6.07902 22.1782 6.21967C22.3189 6.36032 22.3979 6.55109 22.3979 6.75C22.3979 6.94891 22.3189 7.13968 22.1782 7.28033C22.0376 7.42098 21.8468 7.5 21.6479 7.5H20.0699L23.4359 15.18C23.5033 15.3336 23.5172 15.5053 23.4755 15.6677C23.4338 15.8301 23.3389 15.9739 23.2059 16.076C23.1059 16.15 23.0026 16.2187 22.8959 16.282C22.6428 16.4343 22.3787 16.5676 22.1059 16.681C21.2014 17.0593 20.2303 17.2527 19.2499 17.25C18.2698 17.2543 17.2988 17.0611 16.3949 16.682C16.1221 16.5683 15.858 16.4346 15.6049 16.282C15.4986 16.221 15.396 16.1535 15.2979 16.08L15.2929 16.076C15.1599 15.9739 15.065 15.8301 15.0233 15.6677C14.9816 15.5053 14.9956 15.3336 15.0629 15.18L18.4309 7.5H17.5449C17.1939 7.5 16.8509 7.394 16.5609 7.197L14.8639 6.043C14.8226 6.01501 14.7738 6.00004 14.7239 6H12.7499V20.5H17.2369C17.4358 20.5 17.6266 20.579 17.7672 20.7197C17.9079 20.8603 17.9869 21.0511 17.9869 21.25C17.9869 21.4489 17.9079 21.6397 17.7672 21.7803C17.6266 21.921 17.4358 22 17.2369 22H6.76292C6.564 22 6.37324 21.921 6.23259 21.7803C6.09193 21.6397 6.01292 21.4489 6.01292 21.25C6.01292 21.0511 6.09193 20.8603 6.23259 20.7197C6.37324 20.579 6.564 20.5 6.76292 20.5H11.2499V6H9.27492C9.225 6.00004 9.17625 6.01501 9.13492 6.043L7.43892 7.197C7.14892 7.394 6.80592 7.5 6.45492 7.5H5.56892L8.93692 15.18C9.00211 15.3292 9.01697 15.4956 8.97927 15.654C8.94156 15.8124 8.85334 15.9542 8.72792 16.058C8.64792 16.123 8.56792 16.184 8.41792 16.281C8.16516 16.445 7.90041 16.5898 7.62592 16.714C6.72297 17.125 5.74201 17.3365 4.74992 17.334C3.75783 17.3365 2.77686 17.125 1.87392 16.714C1.59942 16.5898 1.33467 16.445 1.08192 16.281C0.975475 16.2123 0.872359 16.1385 0.772917 16.06C0.648232 15.9552 0.56052 15.8131 0.522711 15.6547C0.484902 15.4962 0.498997 15.3298 0.562917 15.18L3.92992 7.5H2.35292C2.154 7.5 1.96324 7.42098 1.82259 7.28033C1.68193 7.13968 1.60292 6.94891 1.60292 6.75C1.60292 6.55109 1.68193 6.36032 1.82259 6.21967C1.96324 6.07902 2.154 6 2.35292 6H6.45492C6.50558 6 6.55258 5.98567 6.59592 5.957L8.29092 4.803C8.58092 4.605 8.92492 4.5 9.27592 4.5H11.2499V2.75C11.2499 2.55109 11.3289 2.36032 11.4696 2.21967C11.6102 2.07902 11.801 2 11.9999 2C12.1988 2 12.3896 2.07902 12.5302 2.21967C12.6709 2.36032 12.7499 2.55109 12.7499 2.75ZM2.19292 15.198C2.97975 15.6175 3.85823 15.8357 4.74992 15.833C5.64161 15.8357 6.52009 15.6175 7.30692 15.198L4.74992 9.368L2.19292 15.198ZM16.7029 15.174C16.7849 15.214 16.8766 15.256 16.9779 15.3C17.5079 15.523 18.2829 15.75 19.2499 15.75C20.1315 15.7524 21.0022 15.5555 21.7969 15.174L19.2499 9.367L16.7029 15.174Z" fill="#114232"/>
</svg>
