<svg width="20" height="20" viewBox="0 0 20 20" fill="none" xmlns="http://www.w3.org/2000/svg">
<g clip-path="url(#clip0_546_13)">
<path d="M10 0.976562C5.01172 0.976562 0.976562 5.01172 0.976562 10C0.976562 14.9883 5.01172 19.0234 10 19.0234C14.9883 19.0234 19.0234 14.9883 19.0234 10C19.0234 5.01172 14.9883 0.976562 10 0.976562ZM10 2.14844C14.332 2.14844 17.8516 5.66797 17.8516 10C17.8516 14.332 14.332 17.8516 10 17.8516C5.66797 17.8516 2.14844 14.332 2.14844 10C2.14844 5.66797 5.66797 2.14844 10 2.14844ZM3.14531 7.96484C2.96133 8.71484 2.85156 9.41016 2.85156 10.0742C8.50391 11.2578 7.59766 12.5117 8.63281 17.0195C9.07812 17.1016 9.53125 17.1484 10 17.1484C10.4688 17.1484 10.9219 17.1016 11.3672 17.0195C12.4023 12.5117 11.4961 11.2578 17.1484 10.0742C17.125 9.33594 17.0312 8.57422 16.8555 7.96484C13.543 7.13672 11.7617 6.71875 10 6.71875C8.23828 6.71875 6.45703 7.13672 3.14531 7.96484ZM10 7.14844C11.5703 7.14844 12.8516 8.42969 12.8516 10C12.8516 11.5703 11.5703 12.8516 10 12.8516C8.42969 12.8516 7.14844 11.5703 7.14844 10C7.14844 8.42969 8.42969 7.14844 10 7.14844ZM10 7.85156C8.80859 7.85156 7.85156 8.80859 7.85156 10C7.85156 11.1914 8.80859 12.1484 10 12.1484C11.1914 12.1484 12.1484 11.1914 12.1484 10C12.1484 8.80859 11.1914 7.85156 10 7.85156Z" fill="#114232"/>
</g>
<defs>
<clipPath id="clip0_546_13">
<rect width="20" height="20" fill="white"/>
</clipPath>
</defs>
</svg>
