<svg width="24" height="24" viewBox="0 0 24 24" fill="none" xmlns="http://www.w3.org/2000/svg">
<path d="M12 22C10.6333 22 9.34167 21.7373 8.125 21.212C6.90833 20.6867 5.846 19.97 4.938 19.062C4.03 18.154 3.31333 17.0917 2.788 15.875C2.26267 14.6583 2 13.3667 2 12C2 10.6167 2.26267 9.321 2.788 8.113C3.31333 6.905 4.03 5.84667 4.938 4.938C5.846 4.02933 6.90833 3.31267 8.125 2.788C9.34167 2.26333 10.6333 2.00067 12 2C13.3833 2 14.6793 2.26267 15.888 2.788C17.0967 3.31333 18.1547 4.03 19.062 4.938C19.9693 5.846 20.686 6.90433 21.212 8.113C21.738 9.32167 22.0007 10.6173 22 12C22 13.3667 21.7373 14.6583 21.212 15.875C20.6867 17.0917 19.97 18.1543 19.062 19.063C18.154 19.9717 17.0957 20.6883 15.887 21.213C14.6783 21.7377 13.3827 22 12 22ZM12 16C13 16 13.975 16.146 14.925 16.438C15.875 16.73 16.7667 17.1507 17.6 17.7C18.3667 16.9333 18.9583 16.0623 19.375 15.087C19.7917 14.1117 20 13.0827 20 12C20 9.76667 19.225 7.875 17.675 6.325C16.125 4.775 14.2333 4 12 4C9.76667 4 7.875 4.775 6.325 6.325C4.775 7.875 4 9.76667 4 12C4 13.0833 4.204 14.1167 4.612 15.1C5.02 16.0833 5.616 16.95 6.4 17.7C7.23333 17.15 8.125 16.729 9.075 16.437C10.025 16.145 11 15.9993 12 16ZM12 18C11.3167 18 10.65 18.0833 10 18.25C9.35 18.4167 8.73333 18.6667 8.15 19C8.73333 19.3333 9.35 19.5833 10 19.75C10.65 19.9167 11.3167 20 12 20C12.6833 20 13.35 19.9167 14 19.75C14.65 19.5833 15.2667 19.3333 15.85 19C15.2667 18.6667 14.65 18.4167 14 18.25C13.35 18.0833 12.6833 18 12 18ZM7 11C7.28333 11 7.521 10.904 7.713 10.712C7.905 10.52 8.00067 10.2827 8 10C7.99933 9.71733 7.90333 9.48 7.712 9.288C7.52067 9.096 7.28333 9 7 9C6.71667 9 6.47933 9.096 6.288 9.288C6.09667 9.48 6.00067 9.71733 6 10C5.99933 10.2827 6.09533 10.5203 6.288 10.713C6.48067 10.9057 6.718 11.0013 7 11ZM10 8C10.2833 8 10.521 7.904 10.713 7.712C10.905 7.52 11.0007 7.28267 11 7C10.9993 6.71733 10.9033 6.48 10.712 6.288C10.5207 6.096 10.2833 6 10 6C9.71667 6 9.47933 6.096 9.288 6.288C9.09667 6.48 9.00067 6.71733 9 7C8.99933 7.28267 9.09533 7.52033 9.288 7.713C9.48067 7.90567 9.718 8.00133 10 8ZM17 11C17.2833 11 17.521 10.904 17.713 10.712C17.905 10.52 18.0007 10.2827 18 10C17.9993 9.71733 17.9033 9.48 17.712 9.288C17.5207 9.096 17.2833 9 17 9C16.7167 9 16.4793 9.096 16.288 9.288C16.0967 9.48 16.0007 9.71733 16 10C15.9993 10.2827 16.0953 10.5203 16.288 10.713C16.4807 10.9057 16.718 11.0013 17 11ZM12 14C12.55 14 13.021 13.8043 13.413 13.413C13.805 13.0217 14.0007 12.5507 14 12C14 11.7833 13.9667 11.5707 13.9 11.362C13.8333 11.1533 13.7333 10.966 13.6 10.8L14.95 7.4C15.0667 7.13333 15.071 6.87067 14.963 6.612C14.855 6.35333 14.6673 6.166 14.4 6.05C14.15 5.93333 13.8957 5.92933 13.637 6.038C13.3783 6.14667 13.1993 6.334 13.1 6.6L11.75 10C11.25 10.0833 10.8333 10.3127 10.5 10.688C10.1667 11.0633 10 11.5007 10 12C10 12.55 10.196 13.021 10.588 13.413C10.98 13.805 11.4507 14.0007 12 14Z" fill="#114232"/>
</svg>
